<svg width="19" height="19" viewBox="0 0 19 19" fill="none" xmlns="http://www.w3.org/2000/svg">
<path d="M9.5 0C4.25125 0 0 4.25125 0 9.5C0 14.7488 4.25125 19 9.5 19C14.7488 19 19 14.7488 19 9.5C19 4.25125 14.7488 0 9.5 0ZM15.2653 15.4731C14.5113 12.9616 12.1897 11.1269 9.43469 11.1269C6.71531 11.1269 4.41156 12.9141 3.63375 15.3781C2.12563 13.8759 1.1875 11.7919 1.1875 9.5C1.1875 4.91625 4.91625 1.1875 9.5 1.1875C14.0838 1.1875 17.8125 4.91625 17.8125 9.5C17.8125 11.8453 16.8328 13.9591 15.2653 15.4731Z" fill="#AAAAAA"/>
<path d="M9.43441 10.1413C11.3954 10.1413 12.985 8.55162 12.985 6.59066C12.985 4.62971 11.3954 3.04004 9.43441 3.04004C7.47346 3.04004 5.88379 4.62971 5.88379 6.59066C5.88379 8.55162 7.47346 10.1413 9.43441 10.1413Z" fill="#AAAAAA"/>
</svg>
