<svg width="42" height="7" viewBox="0 0 42 7" fill="none" xmlns="http://www.w3.org/2000/svg">
<path d="M7.05629 2.82769L5.49344 4.35115L5.86252 6.50286C5.87857 6.59695 5.83993 6.69204 5.76266 6.74824C5.719 6.7801 5.66707 6.79616 5.61513 6.79616C5.57524 6.79616 5.53509 6.78663 5.49846 6.76731L3.56604 5.75142L1.63387 6.76706C1.54956 6.81172 1.44695 6.80444 1.36967 6.74799C1.29239 6.69179 1.25375 6.5967 1.26981 6.50261L1.63888 4.3509L0.0757834 2.82769C0.00753889 2.76095 -0.0173001 2.6611 0.012306 2.57052C0.041912 2.47995 0.120443 2.41346 0.215032 2.39966L2.37502 2.08604L3.34098 0.128523C3.42553 -0.042841 3.70654 -0.042841 3.79109 0.128523L4.75705 2.08604L6.91704 2.39966C7.01163 2.41346 7.09016 2.4797 7.11977 2.57052C7.14938 2.66135 7.12454 2.7607 7.05629 2.82769Z" fill="#AAAAAA"/>
<path d="M15.7731 2.82769L14.2102 4.35115L14.5793 6.50286C14.5954 6.59695 14.5567 6.69204 14.4795 6.74824C14.4358 6.7801 14.3839 6.79616 14.3319 6.79616C14.292 6.79616 14.2519 6.78663 14.2153 6.76731L12.2828 5.75142L10.3507 6.76706C10.2664 6.81172 10.1637 6.80444 10.0865 6.74799C10.0092 6.69179 9.97055 6.5967 9.98661 6.50261L10.3557 4.3509L8.79258 2.82769C8.72434 2.76095 8.6995 2.6611 8.7291 2.57052C8.75871 2.47995 8.83724 2.41346 8.93183 2.39966L11.0918 2.08604L12.0578 0.128523C12.1423 -0.042841 12.4233 -0.042841 12.5079 0.128523L13.4739 2.08604L15.6338 2.39966C15.7284 2.41346 15.807 2.4797 15.8366 2.57052C15.8662 2.66135 15.8413 2.7607 15.7731 2.82769Z" fill="#AAAAAA"/>
<path d="M24.4899 2.82769L22.927 4.35115L23.2961 6.50286C23.3122 6.59695 23.2735 6.69204 23.1963 6.74824C23.1526 6.7801 23.1007 6.79616 23.0487 6.79616C23.0088 6.79616 22.9687 6.78663 22.9321 6.76731L20.9996 5.75142L19.0675 6.76706C18.9832 6.81172 18.8805 6.80444 18.8033 6.74799C18.726 6.69179 18.6873 6.5967 18.7034 6.50261L19.0725 4.3509L17.5094 2.82769C17.4411 2.76095 17.4163 2.6611 17.4459 2.57052C17.4755 2.47995 17.554 2.41346 17.6486 2.39966L19.8086 2.08604L20.7746 0.128523C20.8591 -0.042841 21.1401 -0.042841 21.2247 0.128523L22.1906 2.08604L24.3506 2.39966C24.4452 2.41346 24.5238 2.4797 24.5534 2.57052C24.583 2.66135 24.5581 2.7607 24.4899 2.82769Z" fill="#AAAAAA"/>
<path d="M33.2077 2.82769L31.6448 4.35115L32.0139 6.50286C32.0299 6.59695 31.9913 6.69204 31.914 6.74824C31.8704 6.7801 31.8184 6.79616 31.7665 6.79616C31.7266 6.79616 31.6865 6.78663 31.6498 6.76731L29.7174 5.75142L27.7852 6.76706C27.7009 6.81172 27.5983 6.80444 27.521 6.74799C27.4438 6.69179 27.4051 6.5967 27.4212 6.50261L27.7903 4.3509L26.2272 2.82769C26.1589 2.76095 26.1341 2.6611 26.1637 2.57052C26.1933 2.47995 26.2718 2.41346 26.3664 2.39966L28.5264 2.08604L29.4923 0.128523C29.5769 -0.042841 29.8579 -0.042841 29.9425 0.128523L30.9084 2.08604L33.0684 2.39966C33.163 2.41346 33.2415 2.4797 33.2711 2.57052C33.3007 2.66135 33.2759 2.7607 33.2077 2.82769Z" fill="#AAAAAA"/>
<path d="M41.9245 2.82769L40.3616 4.35115L40.7307 6.50286C40.7467 6.59695 40.7081 6.69204 40.6308 6.74824C40.5872 6.7801 40.5352 6.79616 40.4833 6.79616C40.4434 6.79616 40.4033 6.78663 40.3666 6.76731L38.4342 5.75142L36.502 6.76706C36.4177 6.81172 36.3151 6.80444 36.2378 6.74799C36.1606 6.69179 36.1219 6.5967 36.138 6.50261L36.507 4.3509L34.9439 2.82769C34.8757 2.76095 34.8509 2.6611 34.8805 2.57052C34.9101 2.47995 34.9886 2.41346 35.0832 2.39966L37.2432 2.08604L38.2091 0.128523C38.2937 -0.042841 38.5747 -0.042841 38.6593 0.128523L39.6252 2.08604L41.7852 2.39966C41.8798 2.41346 41.9583 2.4797 41.9879 2.57052C42.0175 2.66135 41.9927 2.7607 41.9245 2.82769Z" fill="#AAAAAA"/>
</svg>
