<svg width="14" height="14" viewBox="0 0 14 14" fill="none" xmlns="http://www.w3.org/2000/svg">
<path d="M13.1694 1.95937C13.1442 1.77887 13.0143 1.63039 12.8388 1.58158L7.2119 0.0167452C7.13168 -0.00558174 7.04695 -0.00558174 6.96667 0.0167452L1.33979 1.58158C1.16423 1.63039 1.03435 1.7788 1.00922 1.95937C0.976584 2.19405 0.232048 7.73894 2.14173 10.4974C4.04916 13.2525 6.86303 13.9585 6.98186 13.9873C7.01718 13.9958 7.05317 14 7.08929 14C7.1254 14 7.16139 13.9957 7.19671 13.9873C7.31561 13.9585 10.1295 13.2525 12.0368 10.4974C13.9465 7.739 13.202 2.19411 13.1694 1.95937ZM10.7179 5.19653L6.8798 9.03463C6.7905 9.12394 6.67337 9.16866 6.55631 9.16866C6.43924 9.16866 6.32212 9.124 6.23281 9.03463L3.85975 6.66157C3.77392 6.5758 3.72573 6.45941 3.72573 6.33808C3.72573 6.21674 3.77398 6.10035 3.85975 6.01458L4.33093 5.5434C4.50961 5.36478 4.79931 5.36472 4.97793 5.5434L6.55631 7.12178L9.59973 4.0783C9.6855 3.99247 9.80189 3.94427 9.92322 3.94427C10.0446 3.94427 10.1609 3.99247 10.2467 4.0783L10.7179 4.54948C10.8966 4.72816 10.8966 5.01786 10.7179 5.19653Z" fill="#0D0D0D"/>
</svg>
