<svg width="13" height="15" viewBox="0 0 13 15" fill="none" xmlns="http://www.w3.org/2000/svg">
<path d="M10.5592 5.16176H9.19132V0.860294C9.19132 0.387132 8.80419 0 8.33103 0H4.88985C4.41669 0 4.02956 0.387132 4.02956 0.860294V5.16176H2.66169C1.89603 5.16176 1.50889 6.09088 2.05088 6.63287L5.99963 10.5816C6.33514 10.9171 6.87713 10.9171 7.21264 10.5816L11.1614 6.63287C11.7034 6.09088 11.3249 5.16176 10.5592 5.16176ZM0.588379 13.7647C0.588379 14.2379 0.975511 14.625 1.44867 14.625H11.7722C12.2454 14.625 12.6325 14.2379 12.6325 13.7647C12.6325 13.2915 12.2454 12.9044 11.7722 12.9044H1.44867C0.975511 12.9044 0.588379 13.2915 0.588379 13.7647Z" fill="#0D0D0D"/>
</svg>
