<svg width="23" height="23" viewBox="0 0 23 23" fill="none" xmlns="http://www.w3.org/2000/svg">
<path d="M11.07 14.3687C11.0674 14.3687 11.0648 14.3687 11.0621 14.3687C10.5795 14.3643 10.1913 13.9696 10.1957 13.4865L10.1996 13.0494C10.1996 13.0244 10.2009 12.9991 10.2035 12.9742C10.3246 11.7024 11.1688 10.923 11.8477 10.2965C12.0777 10.0841 12.2954 9.88341 12.4807 9.67401C12.7067 9.41914 13.0346 8.89717 12.6897 8.26721C12.2923 7.53977 11.3218 7.33387 10.5677 7.50655C9.77993 7.68666 9.48966 8.35946 9.38649 8.74416C9.26146 9.21061 8.78189 9.48734 8.31543 9.36275C7.84898 9.23772 7.57226 8.75815 7.69685 8.2917C8.04527 6.99026 8.94932 6.08314 10.1769 5.80205C11.8289 5.42477 13.4928 6.09232 14.2233 7.42786C14.8314 8.54 14.6648 9.84494 13.7883 10.8338C13.5448 11.1083 13.2847 11.3488 13.0329 11.5809C12.4055 12.1602 12.0134 12.5475 11.947 13.1066L11.9435 13.5014C11.94 13.9827 11.5491 14.3687 11.07 14.3687Z" fill="#5F6367"/>
<path d="M11.0692 16.9899C10.8418 16.9899 10.6145 16.8981 10.4528 16.7364C10.2866 16.5746 10.1948 16.3473 10.1948 16.1156C10.1948 15.8883 10.2866 15.661 10.4528 15.4992C10.7763 15.1757 11.3621 15.1757 11.6856 15.4992C11.8517 15.661 11.9435 15.8883 11.9435 16.1156C11.9435 16.3473 11.8517 16.5703 11.6899 16.7364C11.5238 16.8981 11.3008 16.9899 11.0692 16.9899Z" fill="#5F6367"/>
<path d="M11.3331 22.7155C10.3386 22.7155 9.35277 22.5861 8.40281 22.3303C4.30921 21.2291 1.10392 17.838 0.237021 13.6907C-0.646487 9.46548 0.984135 5.02389 4.39183 2.37511C6.36169 0.843727 8.8461 0 11.3878 0C13.1474 0 14.8947 0.409186 16.4414 1.18253C20.2609 3.09337 22.7287 7.08556 22.7287 11.3536C22.7287 14.836 21.0854 18.1926 18.333 20.3321C16.3561 21.8691 13.87 22.7155 11.3331 22.7155ZM11.3882 1.74866C9.23342 1.74866 7.12979 2.46123 5.46551 3.75568C2.58153 5.99745 1.20097 9.75663 1.94896 13.3326C2.68252 16.8409 5.39425 19.71 8.85746 20.6416C9.65922 20.8571 10.4925 20.9668 11.3331 20.9668C13.4831 20.9668 15.588 20.2512 17.2602 18.9515C19.5898 17.1408 20.9805 14.3005 20.9805 11.3536C20.9805 7.74218 18.8921 4.36377 15.6597 2.7467C14.3544 2.09402 12.8776 1.74866 11.3882 1.74866Z" fill="#5F6367"/>
</svg>
