<svg width="13" height="11" viewBox="0 0 13 11" fill="none" xmlns="http://www.w3.org/2000/svg">
<path d="M12.0297 4.57611L9.50049 7.04155L10.0978 10.5237C10.1238 10.676 10.0612 10.8298 9.93616 10.9208C9.86552 10.9724 9.78147 10.9984 9.69742 10.9984C9.63286 10.9984 9.56789 10.9829 9.50861 10.9517L6.38134 9.30763L3.25447 10.9513C3.11804 11.0235 2.95197 11.0118 2.82691 10.9204C2.70185 10.8294 2.63932 10.6756 2.66531 10.5233L3.26259 7.04114L0.732993 4.57611C0.622552 4.4681 0.582354 4.3065 0.630267 4.15992C0.678179 4.01334 0.805267 3.90575 0.958342 3.88341L4.45389 3.37587L6.01712 0.207991C6.15396 -0.0693304 6.60872 -0.0693304 6.74555 0.207991L8.30878 3.37587L11.8043 3.88341C11.9574 3.90575 12.0845 4.01294 12.1324 4.15992C12.1803 4.30691 12.1401 4.4677 12.0297 4.57611Z" fill="black"/>
</svg>
